<svg style="position: absolute; width: 0; height: 0; overflow: hidden;" version="1.1" 
	xmlns="http://www.w3.org/2000/svg" 
	xmlns:xlink="http://www.w3.org/1999/xlink">
	<defs>
		<symbol id="icon-circle" viewBox="0 0 24 24">
			<title>circle</title>
			<path d="M23 12c0-1.488-0.296-2.91-0.833-4.207-0.558-1.347-1.375-2.558-2.388-3.571s-2.224-1.831-3.571-2.388c-1.298-0.538-2.72-0.834-4.208-0.834s-2.91 0.296-4.207 0.833c-1.347 0.558-2.558 1.375-3.571 2.389s-1.831 2.224-2.389 3.571c-0.537 1.297-0.833 2.719-0.833 4.207s0.296 2.91 0.833 4.207c0.558 1.347 1.375 2.558 2.388 3.571s2.224 1.831 3.571 2.388c1.298 0.538 2.72 0.834 4.208 0.834s2.91-0.296 4.207-0.833c1.347-0.558 2.558-1.375 3.571-2.388s1.831-2.224 2.388-3.571c0.538-1.298 0.834-2.72 0.834-4.208zM21 12c0 1.221-0.243 2.383-0.681 3.442-0.456 1.101-1.124 2.092-1.955 2.922s-1.822 1.499-2.922 1.955c-1.059 0.438-2.221 0.681-3.442 0.681s-2.383-0.243-3.442-0.681c-1.101-0.456-2.092-1.124-2.922-1.955-0.831-0.831-1.499-1.822-1.955-2.922-0.438-1.059-0.681-2.221-0.681-3.442s0.243-2.383 0.681-3.442c0.456-1.101 1.124-2.092 1.955-2.922s1.822-1.499 2.922-1.955c1.059-0.438 2.221-0.681 3.442-0.681s2.383 0.243 3.442 0.681c1.101 0.456 2.092 1.124 2.922 1.955 0.831 0.831 1.499 1.822 1.955 2.922 0.438 1.059 0.681 2.221 0.681 3.442z"></path>
		</symbol>
		<symbol id="icon-check-circle" viewBox="0 0 24 24">
			<title>check-circle</title>
			<path d="M21 11.080v0.92c-0.001 1.22-0.244 2.382-0.683 3.441-0.456 1.1-1.126 2.091-1.957 2.921s-1.823 1.498-2.924 1.953c-1.059 0.438-2.221 0.68-3.442 0.679s-2.382-0.244-3.441-0.683c-1.1-0.456-2.091-1.126-2.921-1.957s-1.498-1.823-1.953-2.924c-0.438-1.058-0.68-2.22-0.679-3.441s0.244-2.382 0.683-3.441c0.456-1.1 1.126-2.091 1.957-2.921s1.823-1.498 2.924-1.953c1.059-0.438 2.221-0.68 3.442-0.679 1.33 0.001 2.586 0.289 3.649 0.775 0.502 0.23 1.096 0.008 1.325-0.494s0.008-1.096-0.494-1.325c-1.327-0.606-2.866-0.955-4.479-0.956-1.488-0.001-2.91 0.294-4.207 0.831-1.348 0.556-2.56 1.373-3.574 2.386s-1.832 2.223-2.39 3.57c-0.538 1.297-0.835 2.718-0.836 4.206s0.294 2.91 0.831 4.207c0.557 1.347 1.374 2.559 2.386 3.573s2.223 1.832 3.57 2.39c1.297 0.538 2.718 0.835 4.206 0.836s2.91-0.294 4.207-0.831c1.347-0.557 2.559-1.374 3.573-2.386s1.832-2.223 2.39-3.57c0.539-1.297 0.836-2.718 0.837-4.207v-0.92c0-0.552-0.448-1-1-1s-1 0.448-1 1zM21.293 3.293l-9.293 9.302-2.293-2.292c-0.391-0.391-1.024-0.391-1.414 0s-0.391 1.024 0 1.414l3 3c0.391 0.391 1.024 0.39 1.415 0l10-10.010c0.39-0.391 0.39-1.024-0.001-1.414s-1.024-0.39-1.414 0.001z"></path>
		</symbol>
		<symbol id="icon-x" viewBox="0 0 24 24">
			<title>x</title>
			<path d="M5.293 6.707l5.293 5.293-5.293 5.293c-0.391 0.391-0.391 1.024 0 1.414s1.024 0.391 1.414 0l5.293-5.293 5.293 5.293c0.391 0.391 1.024 0.391 1.414 0s0.391-1.024 0-1.414l-5.293-5.293 5.293-5.293c0.391-0.391 0.391-1.024 0-1.414s-1.024-0.391-1.414 0l-5.293 5.293-5.293-5.293c-0.391-0.391-1.024-0.391-1.414 0s-0.391 1.024 0 1.414z"></path>
		</symbol>
	</defs>
</svg>